<?xml version="1.0" standalone="no"?>
<!DOCTYPE svg PUBLIC "-//W3C//DTD SVG 20010904//EN"
 "http://www.w3.org/TR/2001/REC-SVG-20010904/DTD/svg10.dtd">
<svg version="1.0" xmlns="http://www.w3.org/2000/svg"
 width="1024.000000pt" height="1024.000000pt" viewBox="0 0 1024.000000 1024.000000"
 preserveAspectRatio="xMidYMid meet">
<metadata>
Created by potrace 1.11, written by Peter Selinger 2001-2013
</metadata>
<g transform="translate(0.000000,1024.000000) scale(0.100000,-0.100000)"
fill="#000000" stroke="none">
<path d="M5067 10224 c-1 -1 -78 -4 -172 -8 -93 -3 -188 -8 -210 -11 -22 -2
-69 -7 -105 -10 -36 -3 -72 -8 -80 -10 -8 -2 -42 -6 -75 -10 -69 -7 -370 -61
-430 -77 -22 -6 -44 -11 -50 -12 -91 -19 -133 -30 -146 -37 -9 -4 -29 -11 -45
-13 -16 -3 -85 -23 -154 -45 -414 -131 -744 -280 -1110 -499 -177 -106 -418
-273 -504 -347 -6 -5 -29 -23 -50 -39 -259 -194 -664 -612 -911 -941 -229
-306 -497 -778 -625 -1105 -22 -58 -45 -114 -50 -125 -18 -37 -108 -309 -139
-420 -36 -129 -97 -385 -104 -435 -3 -19 -12 -75 -20 -125 -23 -133 -32 -196
-52 -405 -29 -292 -20 -762 20 -1050 2 -14 7 -52 10 -85 4 -33 11 -80 17 -105
5 -25 12 -63 14 -85 3 -22 19 -101 35 -175 17 -74 32 -146 35 -160 19 -95 143
-485 192 -606 11 -27 35 -85 52 -129 31 -77 211 -448 247 -510 10 -16 33 -57
52 -90 70 -123 283 -444 355 -532 8 -10 46 -57 85 -105 136 -168 182 -219 371
-409 190 -190 397 -369 581 -502 119 -86 221 -157 225 -157 3 0 31 -17 62 -38
260 -176 689 -384 1042 -507 58 -20 116 -40 130 -45 87 -31 457 -127 563 -145
15 -3 39 -7 55 -10 62 -12 271 -44 322 -51 30 -3 66 -8 80 -9 14 -2 75 -6 135
-10 61 -4 119 -9 130 -11 29 -6 432 -6 545 0 133 7 422 36 510 52 14 2 41 7
60 10 118 19 384 77 484 106 38 11 76 21 85 23 81 18 324 102 506 174 138 55
546 253 609 296 20 14 39 25 41 25 14 0 277 170 400 258 93 68 306 231 315
243 3 3 43 39 90 79 83 71 345 330 425 420 111 125 227 267 306 375 24 33 46
62 49 65 3 3 41 59 84 125 44 66 88 133 99 149 94 137 309 562 396 781 29 72
56 139 61 150 14 31 106 320 133 420 30 107 83 341 92 405 4 24 8 47 10 50 2
3 6 30 10 60 4 30 9 58 10 61 2 3 6 32 10 65 3 33 7 68 9 79 7 40 21 182 31
340 6 86 6 517 1 575 -2 19 -7 76 -10 125 -4 50 -9 104 -11 120 -3 17 -7 53
-10 80 -3 28 -8 70 -11 95 -4 37 -22 144 -48 280 -54 288 -151 612 -276 925
-59 148 -220 483 -280 581 -22 36 -40 68 -40 71 0 22 -339 523 -380 563 -3 3
-25 30 -49 60 -136 174 -424 476 -601 631 -47 41 -87 76 -90 80 -3 3 -39 32
-80 64 -41 32 -77 62 -80 65 -3 3 -34 27 -70 52 -36 26 -71 52 -78 59 -27 23
-310 208 -397 259 -75 44 -235 130 -345 186 -223 113 -582 248 -880 332 -110
31 -350 88 -410 97 -19 3 -60 10 -90 16 -30 5 -73 12 -95 15 -22 3 -69 9 -105
14 -36 5 -92 12 -125 15 -33 3 -78 8 -100 10 -22 3 -112 7 -200 11 -244 9
-285 10 -288 8z"/>
</g>
</svg>
