<?xml version="1.0" standalone="no"?>
<!DOCTYPE svg PUBLIC "-//W3C//DTD SVG 20010904//EN"
 "http://www.w3.org/TR/2001/REC-SVG-20010904/DTD/svg10.dtd">
<svg version="1.0" xmlns="http://www.w3.org/2000/svg"
 width="1992.000000pt" height="1992.000000pt" viewBox="0 0 1992.000000 1992.000000"
 preserveAspectRatio="xMidYMid meet">
<metadata>
Created by potrace 1.11, written by Peter Selinger 2001-2013
</metadata>
<g transform="translate(0.000000,1992.000000) scale(0.100000,-0.100000)"
fill="#000000" stroke="none">
<path d="M9010 19913 c-854 -92 -1524 -233 -2241 -473 -2501 -838 -4569 -2633
-5749 -4990 -514 -1028 -835 -2096 -987 -3285 l-28 -220 0 -985 0 -985 28
-220 c90 -704 237 -1359 447 -1986 838 -2501 2633 -4569 4990 -5749 1028 -514
2096 -835 3285 -987 l220 -28 985 0 985 0 220 28 c704 90 1359 237 1986 447
2501 838 4569 2633 5749 4990 514 1028 835 2096 987 3285 l28 220 0 985 0 985
-28 220 c-90 704 -237 1359 -447 1986 -838 2501 -2633 4569 -4990 5749 -1026
514 -2090 834 -3280 987 l-215 27 -955 2 c-525 1 -971 0 -990 -3z"/>
</g>
</svg>
